<svg id="Layer_1" data-name="Layer 1" xmlns="http://www.w3.org/2000/svg" xmlns:xlink="http://www.w3.org/1999/xlink" viewBox="0 0 697.22 129.92"><defs><style>.cls-12{fill:none;stroke-miterlimit:10;stroke:#e6e8ff}</style><clipPath id="clip-path" transform="translate(100.18 5.15)"><path fill="none" d="M0 0h500v121.13H0z"/></clipPath><linearGradient id="linear-gradient" x1="350.18" y1="126.28" x2="350.18" y2="5.15" gradientUnits="userSpaceOnUse"><stop offset="0" stop-color="#6a02f7"/><stop offset=".74" stop-color="#090425"/></linearGradient><linearGradient id="linear-gradient-2" x1="367.78" y1="120.44" x2="331.13" y2="10.99" gradientUnits="userSpaceOnUse"><stop offset="0" stop-color="#e6e8ff"/><stop offset=".12" stop-color="#dce5fe"/><stop offset=".34" stop-color="#c1dcfc"/><stop offset=".61" stop-color="#96cef9"/><stop offset=".93" stop-color="#5bbaf5"/><stop offset="1" stop-color="#4cb5f4"/></linearGradient><linearGradient id="linear-gradient-3" x1="377.7" y1="128.03" x2="339.63" y2="14.33" gradientTransform="matrix(-1 -.12 -.12 .99 673.47 37.96)" xlink:href="#linear-gradient-2"/><linearGradient id="linear-gradient-4" x1="454.94" y1="154.7" x2="414.39" y2="33.57" gradientTransform="matrix(-.98 -.24 -.24 .97 707.99 78.95)" xlink:href="#linear-gradient-2"/><linearGradient id="linear-gradient-5" x1="522.57" y1="183.64" x2="481.16" y2="59.96" gradientTransform="matrix(-.95 -.34 -.34 .94 733.64 122.65)" xlink:href="#linear-gradient-2"/><linearGradient id="linear-gradient-6" x1="595.7" y1="234.99" x2="548.75" y2="94.74" gradientTransform="matrix(-.89 -.46 -.47 .89 759.39 186.63)" xlink:href="#linear-gradient-2"/><linearGradient id="linear-gradient-7" x1="649.37" y1="269.11" x2="601.38" y2="125.77" gradientTransform="scale(-1 1) rotate(-33.2 9.81 1405.02)" xlink:href="#linear-gradient-2"/><linearGradient id="linear-gradient-8" x1="705" y1="306.78" x2="655.87" y2="160.03" gradientTransform="matrix(-.79 -.63 -.63 .78 777.9 301.96)" xlink:href="#linear-gradient-2"/><linearGradient id="linear-gradient-9" x1="747.64" y1="341.21" x2="697.72" y2="192.1" gradientTransform="matrix(-.74 -.68 -.69 .73 778.36 350.24)" xlink:href="#linear-gradient-2"/><linearGradient id="linear-gradient-10" x1="515.09" y1="144.8" x2="477.02" y2="31.1" gradientTransform="matrix(1 -.12 .12 .99 -112.54 37.96)" xlink:href="#linear-gradient-2"/><linearGradient id="linear-gradient-11" x1="589.28" y1="187.99" x2="548.73" y2="66.87" gradientTransform="rotate(-14 248.55 643.28)" xlink:href="#linear-gradient-2"/><linearGradient id="linear-gradient-12" x1="652.66" y1="230.9" x2="611.25" y2="107.22" gradientTransform="rotate(-20 263.03 553.68)" xlink:href="#linear-gradient-2"/><linearGradient id="linear-gradient-13" x1="718.25" y1="299.33" x2="671.29" y2="159.07" gradientTransform="matrix(.89 -.46 .47 .89 -198.13 186.63)" xlink:href="#linear-gradient-2"/><linearGradient id="linear-gradient-14" x1="765.41" y1="344.56" x2="717.42" y2="201.22" gradientTransform="rotate(-33.2 289.34 467.83)" xlink:href="#linear-gradient-2"/><linearGradient id="linear-gradient-15" x1="812.74" y1="393.68" x2="763.61" y2="246.93" gradientTransform="rotate(-39 318.1 456.16)" xlink:href="#linear-gradient-2"/><linearGradient id="linear-gradient-16" x1="848.9" y1="435.62" x2="798.98" y2="286.51" gradientTransform="rotate(-42.3 342.9 450.26) skewX(.4)" xlink:href="#linear-gradient-2"/><linearGradient id="linear-gradient-17" x1="46.44" y1="96.16" x2="38.32" y2="70.31" gradientTransform="matrix(1.01 .09 .07 1.13 -16.34 -23.63)" gradientUnits="userSpaceOnUse"><stop offset="0" stop-color="#bfbfff"/><stop offset=".05" stop-color="#beb9ff"/><stop offset=".12" stop-color="#bda8ff"/><stop offset=".2" stop-color="#bb8bff"/><stop offset=".29" stop-color="#b764ff"/><stop offset=".38" stop-color="#b332ff"/><stop offset=".46" stop-color="#af00ff"/><stop offset=".47" stop-color="#a600f2"/><stop offset=".48" stop-color="#9b00e1"/><stop offset=".49" stop-color="#9400d7"/><stop offset=".5" stop-color="#9200d4"/><stop offset=".5" stop-color="#9a24dc"/><stop offset=".51" stop-color="#a348e4"/><stop offset=".51" stop-color="#ab68eb"/><stop offset=".51" stop-color="#b184f2"/><stop offset=".52" stop-color="#b69af7"/><stop offset=".52" stop-color="#baabfa"/><stop offset=".53" stop-color="#bdb6fd"/><stop offset=".54" stop-color="#bfbdff"/><stop offset=".56" stop-color="#bfbfff"/><stop offset=".86" stop-color="#af00ff"/></linearGradient><linearGradient id="linear-gradient-18" x1="84.37" y1="86.56" x2="76.35" y2="61.03" xlink:href="#linear-gradient-17"/><linearGradient id="linear-gradient-19" x1="115.21" y1="78.66" x2="107.19" y2="53.12" xlink:href="#linear-gradient-17"/><linearGradient id="linear-gradient-20" x1="137.1" y1="54.89" x2="134.21" y2="45.68" xlink:href="#linear-gradient-17"/><linearGradient id="linear-gradient-21" x1="161.82" y1="65.88" x2="153.89" y2="40.62" xlink:href="#linear-gradient-17"/><linearGradient id="linear-gradient-22" x1="210.18" y1="53.67" x2="202.16" y2="28.14" xlink:href="#linear-gradient-17"/><linearGradient id="linear-gradient-23" x1="240.94" y1="44.61" x2="233.05" y2="19.48" xlink:href="#linear-gradient-17"/><linearGradient id="linear-gradient-24" x1="266.26" y1="38.51" x2="258.37" y2="13.38" xlink:href="#linear-gradient-17"/><linearGradient id="linear-gradient-25" x1="291.83" y1="32.33" x2="283.81" y2="6.79" xlink:href="#linear-gradient-17"/><linearGradient id="linear-gradient-26" x1="94.46" y1="141.62" x2="94.46" y2="113.4" gradientTransform="matrix(.96 .02 .02 1.03 3.17 -33.26)" gradientUnits="userSpaceOnUse"><stop offset="0" stop-color="#f0f"/><stop offset=".11" stop-color="#ff0aff"/><stop offset=".29" stop-color="#ff25ff"/><stop offset=".52" stop-color="#ff50fe"/><stop offset=".79" stop-color="#ff8bfe"/><stop offset="1" stop-color="#ffbffd"/></linearGradient><linearGradient id="linear-gradient-27" x1="116.16" y1="136.11" x2="116.16" y2="122.34" xlink:href="#linear-gradient-26"/><linearGradient id="linear-gradient-28" x1="139.07" y1="132.52" x2="139.07" y2="116.96" xlink:href="#linear-gradient-26"/><linearGradient id="linear-gradient-29" x1="157.4" y1="126.34" x2="157.4" y2="104.98" xlink:href="#linear-gradient-26"/><linearGradient id="linear-gradient-30" x1="173.34" y1="124.09" x2="173.34" y2="109.55" xlink:href="#linear-gradient-26"/><linearGradient id="linear-gradient-31" x1="189.49" y1="131.09" x2="189.49" y2="104.73" xlink:href="#linear-gradient-26"/><linearGradient id="linear-gradient-32" x1="213.03" y1="115.32" x2="213.03" y2="98.75" xlink:href="#linear-gradient-26"/><linearGradient id="linear-gradient-33" x1="229.35" y1="111.81" x2="229.35" y2="85.39" xlink:href="#linear-gradient-26"/><linearGradient id="linear-gradient-34" x1="246.88" y1="106.63" x2="246.88" y2="92.64" xlink:href="#linear-gradient-26"/><linearGradient id="linear-gradient-35" x1="260.27" y1="104.07" x2="260.27" y2="77.3" xlink:href="#linear-gradient-26"/><linearGradient id="linear-gradient-36" x1="272.54" y1="106.47" x2="272.54" y2="73.92" xlink:href="#linear-gradient-26"/><linearGradient id="linear-gradient-37" x1="301.71" y1="107.91" x2="301.71" y2="104.94" gradientUnits="userSpaceOnUse"><stop offset=".06" stop-color="#6f6200"/><stop offset=".33" stop-color="#d4c600"/><stop offset=".38" stop-color="#d6c80a"/><stop offset=".48" stop-color="#dace25"/><stop offset=".61" stop-color="#e1d850"/><stop offset=".75" stop-color="#ece58c"/><stop offset=".92" stop-color="#f8f6d8"/><stop offset="1" stop-color="#fff"/></linearGradient><linearGradient id="linear-gradient-38" x1="306.17" y1="107.91" x2="306.17" y2="104.94" xlink:href="#linear-gradient-37"/><linearGradient id="linear-gradient-39" x1="310.64" y1="107.91" x2="310.64" y2="104.94" xlink:href="#linear-gradient-37"/><linearGradient id="linear-gradient-40" x1="319.56" y1="107.91" x2="319.56" y2="94.03" xlink:href="#linear-gradient-37"/><linearGradient id="linear-gradient-41" x1="332.95" y1="107.91" x2="332.95" y2="94.03" xlink:href="#linear-gradient-37"/><linearGradient id="linear-gradient-42" x1="346.34" y1="107.91" x2="346.34" y2="94.03" xlink:href="#linear-gradient-37"/><linearGradient id="linear-gradient-43" x1="359.72" y1="107.91" x2="359.72" y2="94.03" xlink:href="#linear-gradient-37"/><linearGradient id="linear-gradient-44" x1="373.11" y1="107.91" x2="373.11" y2="94.03" xlink:href="#linear-gradient-37"/><linearGradient id="linear-gradient-45" x1="386.5" y1="107.91" x2="386.5" y2="94.03" xlink:href="#linear-gradient-37"/><linearGradient id="linear-gradient-46" x1="399.88" y1="107.91" x2="399.88" y2="94.03" xlink:href="#linear-gradient-37"/><linearGradient id="linear-gradient-47" x1="418.31" y1="107.91" x2="418.31" y2="94.03" xlink:href="#linear-gradient-37"/><linearGradient id="linear-gradient-48" x1="431.7" y1="107.91" x2="431.7" y2="94.03" xlink:href="#linear-gradient-37"/><linearGradient id="linear-gradient-49" x1="445.09" y1="107.91" x2="445.09" y2="94.03" xlink:href="#linear-gradient-37"/><linearGradient id="linear-gradient-50" x1="454.51" y1="107.91" x2="454.51" y2="94.03" xlink:href="#linear-gradient-37"/><linearGradient id="linear-gradient-51" x1="463.93" y1="107.91" x2="463.93" y2="94.03" xlink:href="#linear-gradient-37"/><linearGradient id="linear-gradient-52" x1="477.31" y1="107.91" x2="477.31" y2="94.03" xlink:href="#linear-gradient-37"/><linearGradient id="linear-gradient-53" x1="486.24" y1="107.91" x2="486.24" y2="94.03" xlink:href="#linear-gradient-37"/><linearGradient id="linear-gradient-54" x1="462.22" y1="71.66" x2="462.22" y2="15.23" xlink:href="#linear-gradient-37"/><linearGradient id="linear-gradient-55" x1="327.78" y1="61.94" x2="327.78" y2="50.67" xlink:href="#linear-gradient-37"/><linearGradient id="linear-gradient-56" x1="336.67" y1="45.97" x2="336.67" y2="23.72" xlink:href="#linear-gradient-37"/><linearGradient id="linear-gradient-57" x1="328.9" y1="67.58" x2="328.9" y2="43.45" xlink:href="#linear-gradient-37"/><linearGradient id="linear-gradient-58" x1="328.77" y1="43.91" x2="328.77" y2="11.74" xlink:href="#linear-gradient-37"/><linearGradient id="linear-gradient-59" x1="333.44" y1="70.38" x2="333.44" y2="64.83" xlink:href="#linear-gradient-37"/><linearGradient id="linear-gradient-60" x1="395.94" y1="72.31" x2="395.94" y2="16.5" gradientUnits="userSpaceOnUse"><stop offset="0" stop-color="#6f6200"/><stop offset=".33" stop-color="#d4c600"/><stop offset=".38" stop-color="#d6c80a"/><stop offset=".48" stop-color="#dace25"/><stop offset=".61" stop-color="#e1d850"/><stop offset=".75" stop-color="#ece58c"/><stop offset=".92" stop-color="#f8f6d8"/><stop offset="1" stop-color="#fff"/></linearGradient><linearGradient id="linear-gradient-61" x1="395.55" y1="57.75" x2="395.55" y2="31.06" xlink:href="#linear-gradient-60"/></defs><g clip-path="url(#clip-path)"><path fill="url(#linear-gradient)" d="M100.18 5.15h500v121.13h-500z"/><path stroke="url(#linear-gradient-2)" stroke-miterlimit="10" fill="none" d="M349.84 126.28l-.77-121.13"/><path stroke="url(#linear-gradient-3)" stroke-miterlimit="10" fill="none" d="M296.11 126.76L315.84 3.59"/><path stroke="url(#linear-gradient-4)" stroke-miterlimit="10" fill="none" d="M239.93 128.64L280.03 2.9"/><path stroke="url(#linear-gradient-5)" stroke-miterlimit="10" fill="none" d="M188.06 126.62l56.56-121.7"/><path stroke="url(#linear-gradient-6)" stroke-miterlimit="10" fill="none" d="M129.37 129.64L213.76 3.57"/><path stroke="url(#linear-gradient-7)" stroke-miterlimit="10" fill="none" d="M84.91 120.14L183.69.85"/><path stroke="url(#linear-gradient-8)" stroke-miterlimit="10" fill="none" d="M39.45 111.76L152.82 1.09"/><path stroke="url(#linear-gradient-9)" stroke-miterlimit="10" fill="none" d="M.32 104.33L123.25.38"/><path class="cls-12" d="M100.18 95.68h500M100.18 68.77h500M100.18 46.37h500M100.18 28.05h500"/><path stroke="#4cb5f4" stroke-miterlimit="10" fill="none" d="M100.18 14.82h500"/><path stroke="#7accf4" stroke-miterlimit="10" fill="none" d="M98.91 28.05h500"/><path stroke="#94dbf7" stroke-miterlimit="10" fill="none" d="M98.91 46.37h500"/><path stroke="#beedfc" stroke-miterlimit="10" fill="none" d="M98.91 68.77h500"/><path stroke="url(#linear-gradient-10)" stroke-miterlimit="10" fill="none" d="M402.27 126.76L382.62 3.59"/><path stroke="url(#linear-gradient-11)" stroke-miterlimit="10" fill="none" d="M458.23 128.64L418.29 2.9"/><path stroke="url(#linear-gradient-12)" stroke-miterlimit="10" fill="none" d="M509.9 126.62L453.56 4.92"/><path stroke="url(#linear-gradient-13)" stroke-miterlimit="10" fill="none" d="M568.36 129.64L484.3 3.57"/><path stroke="url(#linear-gradient-14)" stroke-miterlimit="10" fill="none" d="M612.64 120.14L514.25.85"/><path stroke="url(#linear-gradient-15)" stroke-miterlimit="10" fill="none" d="M657.93 111.76L545 1.09"/><path stroke="url(#linear-gradient-16)" stroke-miterlimit="10" fill="none" d="M696.9 104.33L574.46.38"/><g id="Bens-epic" stroke="#fff" stroke-miterlimit="10"><path d="M17.61 92.6L17 61.65l21.78-4.51q10.53-2.14 10.73 7.2a11.17 11.17 0 0 1-1.61 6.44 8.34 8.34 0 0 1 1.87 5.72q.23 9.41-10.38 11.59zm7-25.86l.12 5.52L39 69.3q3.1-.64 3-3.41c0-1.84-1.09-2.55-3.17-2.12zm.26 12.16l.12 5.52 14.31-3q3.11-.64 3-3.41c0-1.84-1.09-2.55-3.17-2.12z" transform="translate(100.18 5.15)" fill="url(#linear-gradient-17)"/><path d="M68 51.08L82.92 48l.14 6.63-14.94 3.08q-7.47 1.55-7.32 8.18l.09 4.42Q61 77 68.5 75.4l14.94-3.09.14 6.63L68.64 82Q53.7 85.14 53.42 71.86l-.09-4.42Q53 54.18 68 51.08zM80.83 67.3L63.4 70.9l-.14-6.63 17.43-3.61z" transform="translate(100.18 5.15)" fill="url(#linear-gradient-18)"/><path d="M116.81 54.29l.37 17.71-7.47 1.55-.37-17.69q-.15-6.63-7.61-5.09t-7.33 8.16l.38 17.69-7.47 1.55-.38-17.69q-.29-13.26 14.66-16.36t15.22 10.17z" transform="translate(100.18 5.15)" fill="url(#linear-gradient-19)"/><path d="M128 49.76l-7.47 1.55-.23-11.06 7.46-1.54z" transform="translate(100.18 5.15)" fill="url(#linear-gradient-20)"/><path d="M151.41 64.89l-18 3.74-.19-6.63 18.05-3.74q3.1-.65 3-3.41c0-1.84-1.09-2.55-3.17-2.12l-8.71 1.81q-10.58 2.19-10.78-7.21T142 35.74L160 32l.15 6.64-18 3.74c-2.08.42-3.09 1.56-3.05 3.4s1.09 2.55 3.17 2.12l8.73-1.8q10.58-2.19 10.78 7.2t-10.37 11.59z" transform="translate(100.18 5.15)" fill="url(#linear-gradient-21)"/><path d="M192.65 25.26l14.93-3.09.14 6.63-14.93 3.09q-7.47 1.56-7.33 8.18l.1 4.43q.13 6.63 7.6 5.08l14.94-3.09.14 6.63-14.93 3.09Q178.37 59.32 178.09 46l-.1-4.42q-.28-13.22 14.66-16.32zm12.84 16.22l-17.42 3.61-.14-6.64 17.42-3.61z" transform="translate(100.18 5.15)" fill="url(#linear-gradient-22)"/><path d="M229.21 39.89l-7.47 1.55-.14-6.63 7.47-1.55c3.32-.69 5-2.5 4.89-5.45s-1.76-4.08-5.08-3.39l-10 2.06.52 24.32-7.4 1.55-.66-31 17.42-3.6q12.45-2.58 12.68 8.47t-12.23 13.67z" transform="translate(100.18 5.15)" fill="url(#linear-gradient-23)"/><path d="M254.3 43.58l-7.47 1.55-.66-30.95 7.46-1.55z" transform="translate(100.18 5.15)" fill="url(#linear-gradient-24)"/><path d="M273.55 8.51l14.93-3.1.15 6.64-14.94 3.09q-7.47 1.55-7.33 8.18l.1 4.42q.14 6.63 7.61 5.09l14.93-3.1.14 6.64-14.93 3.09Q259.27 42.55 259 29.29l-.09-4.43q-.29-13.26 14.64-16.35z" transform="translate(100.18 5.15)" fill="url(#linear-gradient-25)"/></g><g id="Gaming-shelf"><path d="M89.88 113.73c-3.8-1.54-5.76-5.79-3.53-11.28C89.28 95.2 99.38 86.74 103 86c1-.21 1.67.11 2.78 1 1.32 1.18 1.37 1.93 1.14 2.09-7.49 5.18-13.63 10.29-16 16.59a7.21 7.21 0 0 0-.1 5.71c3.48-.61 8.9-4 11.31-7.62-.71.38-1.72.85-2.8 1.38-.8.36-1.39.49-1.82.07a9.41 9.41 0 0 1-1.56-1.85c-.21-.39-.23-.57.2-.77 1.6-.72 8.87-3.48 11.11-4.15.34-.11.47.26.23.54a26.79 26.79 0 0 0-1.49 2.31 12.5 12.5 0 0 1-2.79 1.88 14.6 14.6 0 0 1 .4 2.15 4.24 4.24 0 0 1-.68 2.66c-1.26 2.1-4.28 5.76-7.83 6.54a6.43 6.43 0 0 1-5.22-.8z" transform="translate(100.18 5.15)" fill="url(#linear-gradient-26)"/><path d="M116.85 104.73c-1.24 3-2.61 4.4-3.85 4.68a6.19 6.19 0 0 1-4.93-1.66c-1.3-1.11-1.81-2.86-.48-5.82 1.55-3.44 4.82-6 7-6.5a4.32 4.32 0 0 1 3.4 1.23.86.86 0 0 1 .71-.6 8.14 8.14 0 0 1 2.45.16c1 .18 1.55.5 1.68.88s.07 1.19-.42 3.67a12.37 12.37 0 0 0-.3 4.15c1.6-.71 2.91-2.28 4.57-6l.07-.16c.17-.37.23-.42.39-.34l.15.08c.35.17.37.35.3.62l-.06.2c-1.33 4.34-3.89 8-7 8.68-1.72.39-3.36-.23-3.68-3.27zm.85-6.94a9.77 9.77 0 0 0-3.82 3.54c-1.29 2-1.83 4.19-1.13 5.5 2.05-1.21 3.64-3.83 4.95-9.04z" transform="translate(100.18 5.15)" fill="url(#linear-gradient-27)"/><path d="M138 104.38a4.27 4.27 0 0 1-2.28-.56 2.13 2.13 0 0 1-1.4-2.36c.21-1.73 2-5 3.42-8.38a27.6 27.6 0 0 0-6.81 11.2c-.56 1.66-1.22 2-2.12 1.89a12.9 12.9 0 0 1-1.92-.46 2.23 2.23 0 0 1-1.49-1.79c-.23-1.16.53-3.22 1.31-5 2.6-5.86 3.2-7 3.83-7.19s1.84.47 3.15.77c.81.15 1.13.48 1.24 1 1.8-2.08 3-3 3.71-3.12a3.22 3.22 0 0 1 1.77.16 1.88 1.88 0 0 1 1.33 1.17 6 6 0 0 1-.16 3.22c2.34-2.71 3-3.28 3.84-3.47a3.58 3.58 0 0 1 1.56 0 2.05 2.05 0 0 1 1.63 1.11c.53 1.53-1.41 4.43-1.68 6.61 1.8-.76 3.48-2.48 4.93-5.83l.07-.16c.17-.36.23-.41.39-.34l.15.08c.35.18.37.36.3.63l-.06.19c-1.15 3.87-4 7.27-6.47 7.81a3.68 3.68 0 0 1-4.24-2.19 5.79 5.79 0 0 1 .27-2.76c-.86 1-1.48 2.66-2.7 5.45-.73 1.66-1.05 2.21-1.57 2.32z" transform="translate(100.18 5.15)" fill="url(#linear-gradient-28)"/><path d="M152.87 99.78c-2.23-1-2.57-1.77-1-6.36a58.23 58.23 0 0 1 2.61-6.34.67.67 0 0 1 .54-.37c1-.21 3.49-.58 3.93.71.24.68-.14 2-.93 4-1.24 3.12-1.91 5.21-2 6.53a7.08 7.08 0 0 0 3.77-3.2.16.16 0 0 1 .23 0 2.51 2.51 0 0 1 .25.49.9.9 0 0 1-.09.72c-.57 1.51-2.09 3.93-4.2 4.39a4.75 4.75 0 0 1-3.11-.57zm3.65-16.91a11.32 11.32 0 0 1 1.26-3.41c.39-.71.67-1 1-1a8.06 8.06 0 0 1 2.56.5c.48.19.74.35.52.69-.71 1.1-1.52 2.27-1.85 2.78a2 2 0 0 1-1.53 1.06 4.48 4.48 0 0 1-1.76 0c-.18-.07-.25-.28-.2-.62z" transform="translate(100.18 5.15)" fill="url(#linear-gradient-29)"/><path d="M165.51 98.26a4.15 4.15 0 0 1-2.26-.35 3 3 0 0 1-1.91-1.66c-.33-1 .26-2.94 1.25-5.17a74.47 74.47 0 0 0 2.8-6.78.52.52 0 0 1 .44-.43 6.74 6.74 0 0 1 3.67.7c.81.4 1.3.85 1.2 1.67a13.81 13.81 0 0 1 4.1-2.61 3.2 3.2 0 0 1 2.06.28c1.14.52 1.39 1.12 1.16 2.41-.33 2-1.87 5.19-1.79 6.89 1.7-.77 3.46-2.51 5.08-6.22l.07-.16c.17-.37.23-.42.39-.34l.15.07c.35.18.37.36.3.63l-.06.2c-.74 2.39-3.42 7.54-6.77 8.27a4 4 0 0 1-2.88-.57c-1.25-.72-2-1.58-1.75-2.91.36-2 1.78-4 2.44-5.86a60.65 60.65 0 0 0-4.41 5.23 36.78 36.78 0 0 1-2.49 6c-.3.45-.52.65-.79.71z" transform="translate(100.18 5.15)" fill="url(#linear-gradient-30)"/><path d="M177.09 105.52a3.49 3.49 0 0 1-1.91-1.89c-.69-2 .54-4.31 3-6.06a45.66 45.66 0 0 1 9.55-4.68c.4-.92.79-1.85 1.12-2.84a9.9 9.9 0 0 1-2.51 2.2 3.32 3.32 0 0 1-2.81.25 3.86 3.86 0 0 1-3.24-2.37c-.44-1.29-.24-3.52 1.55-6.14a12.85 12.85 0 0 1 7.46-4.88c1.33-.29 2-.23 2.43.34a3.69 3.69 0 0 0 .44.56 9.55 9.55 0 0 1 1.91-.05c1.26.13 2 .48 2.18 1s-.52 4.6-2.56 9.8a27.14 27.14 0 0 1 5.3-1.2c.44-.06.62 0 .67.11a.84.84 0 0 1-.13.47 1.18 1.18 0 0 1-.8.5 78.87 78.87 0 0 0-5.75 1.92 37 37 0 0 1-4.44 7.73 14.21 14.21 0 0 1-7.79 5.42 7.62 7.62 0 0 1-3.67-.19zm9.6-10.39c-5.37 2.67-8.54 5.3-7.9 8.63a15.6 15.6 0 0 0 4.21-3 22.63 22.63 0 0 0 3.69-5.63zm3.58-9.88c.27-1.19.49-2.37.64-3.53-3.16 1.28-5.91 5.85-5.91 8.62a12 12 0 0 0 5.27-5.09z" transform="translate(100.18 5.15)" fill="url(#linear-gradient-31)"/><path d="M212.29 88.48a5.27 5.27 0 0 1-2.84 1.64 5.55 5.55 0 0 1-3.52-.37c-.88-.39-1.21-.86-.86-1 2-1.14 4.76-3.85 4.18-5.55-.42-1.23-2.85-1.24-3.55-3.28-1.08-3.16 3-4.5 5.11-6.49.18-.22.64-.21 1.45.31a4.37 4.37 0 0 1 1.84 1.93c.4 1.19-.55 2.21-2.86 3.55-1.29.76-2 1.23-1.73 1.91.38 1.12 3 1.46 3.79 3.74a3.67 3.67 0 0 1-1.01 3.61z" transform="translate(100.18 5.15)" fill="url(#linear-gradient-32)"/><path d="M218.86 86.86c-.39.08-.81-.16-1.69-.4-1.39-.39-2.25-.83-2.52-1.61-.21-.61 0-1.42 1.37-5.45 3.7-10.74 5.86-17.05 6.1-19.15.06-.45.27-.57.68-.48a17.51 17.51 0 0 1 2.85.62c1.09.49 1.51 1.71 1.16 3.4-.66 3.1-2.2 6.43-4.35 13.26a43.26 43.26 0 0 1 2.54-3.49c1.38-1.72 2.11-2.29 2.81-2.44a4.31 4.31 0 0 1 2.27.27 3 3 0 0 1 1.28 3.12c-.29 2.22-1.5 3.94-1.35 6.83 1.59-.86 3.17-2.59 4.68-6l.07-.16c.17-.36.24-.41.39-.34l.15.08c.35.18.37.36.3.63l-.06.19c-1.47 4.89-4.69 7.86-6.64 8.29a3.17 3.17 0 0 1-2.34-.48 3 3 0 0 1-1.72-2.84 24.48 24.48 0 0 1 .57-4.58 28.43 28.43 0 0 0-5.13 8.17c-.68 1.77-1.03 2.47-1.42 2.56z" transform="translate(100.18 5.15)" fill="url(#linear-gradient-33)"/><path d="M238.2 81.9a7.71 7.71 0 0 1-3.88-2.15c-1-1-1.14-3.22-.14-5.56 1.33-3 4.45-5.86 7.1-6.44 1.06-.23 2-.11 3.56 1.08a3.27 3.27 0 0 1 2.06 1.74c.28.82-.18 2.05-2.21 4a27.33 27.33 0 0 1-5.53 3.69 5.65 5.65 0 0 0 .35 1.27 6 6 0 0 0 1.71-.15c3.12-.68 6.25-3.3 7.94-7.18l.07-.16c.17-.37.24-.42.39-.34l.15.08c.35.17.37.35.3.62l-.06.2c-1.27 4.26-5.3 8.39-9.2 9.24a6.18 6.18 0 0 1-2.61.06zm6-11.89a9.66 9.66 0 0 0-4.84 6.42 18.91 18.91 0 0 0 3.67-3c1.29-1.43 1.53-2.43 1.12-3.43z" transform="translate(100.18 5.15)" fill="url(#linear-gradient-34)"/><path d="M250 79a3.27 3.27 0 0 1-1.47-1.58c-.34-1-.27-2.64.61-5.21a438.42 438.42 0 0 1 7.24-19.52c.19-.44.36-.55 1-.39s1.12.34 1.74.57c1.12.45 1.86 1 1 3.69a442.38 442.38 0 0 1-5.48 15.59c-1 2.58-1.14 4-1 4.75a8.51 8.51 0 0 0 4.09-3.49.17.17 0 0 1 .24 0 3.21 3.21 0 0 1 .25.49 1 1 0 0 1-.09.72c-.67 1.72-2.57 4.5-5 5A3.63 3.63 0 0 1 250 79z" transform="translate(100.18 5.15)" fill="url(#linear-gradient-35)"/><path d="M262.41 82.34c-.47.1-.86-.29-1.76-.6-1.14-.41-2-.61-2.35-1.49-.57-1.67.78-6.53 2.17-10.56.52-1.54 1.07-3 1.6-4.4-.92.27-1.27.2-1.56 0a4 4 0 0 1-.72-.86c-.28-.46-.07-.57.23-.68.68-.22 1.75-.52 3-.94a76.7 76.7 0 0 1 5-10.51c1.46-2.58 2.35-3 3-3.17a4 4 0 0 1 1.65 0 1.74 1.74 0 0 1 1.46 1.11 14.84 14.84 0 0 1-.59 5.75 1.57 1.57 0 0 1-1.16 1c-.46.1-.72.2-1.15.29a.64.64 0 0 1-.63-.12 21.17 21.17 0 0 0-1.66 3.72c1.33-.4 2.49-.8 3.43-1.11.11-.06.21 0 .21.13a5.36 5.36 0 0 1-.06 1c0 .41-.37.63-1 .91-.83.4-2 .88-3.42 1.41-4.31 12.63-4.84 16.1-5.08 18-.12.72-.3 1.05-.61 1.12z" transform="translate(100.18 5.15)" fill="url(#linear-gradient-36)"/></g></g><g id="nonstop-action"><path d="M303.2 107.91h-3v-3h3z" transform="translate(100.18 5.15)" fill="url(#linear-gradient-37)"/><path d="M307.66 107.91h-3v-3h3z" transform="translate(100.18 5.15)" fill="url(#linear-gradient-38)"/><path d="M312.12 107.91h-3v-3h3z" transform="translate(100.18 5.15)" fill="url(#linear-gradient-39)"/><path d="M325.51 100v7.93h-3V100a2.64 2.64 0 0 0-3-3c-2 0-3 1-3 3v7.93h-3V100q0-6 5.95-6t6.05 6z" transform="translate(100.18 5.15)" fill="url(#linear-gradient-40)"/><path d="M327 100q0-6 5.95-6t5.95 6v2q0 6-5.95 6t-5.95-6zm6-3a2.64 2.64 0 0 0-3 3v2a3 3 0 1 0 5.95 0v-2c-.03-2-1.02-3-2.95-3z" transform="translate(100.18 5.15)" fill="url(#linear-gradient-41)"/><path d="M352.29 100v7.93h-3V100c0-2-1-3-3-3a2.63 2.63 0 0 0-3 3v7.93h-3V100q0-6 5.95-6c4.06 0 6.05 2 6.05 6z" transform="translate(100.18 5.15)" fill="url(#linear-gradient-42)"/><path d="M361.46 107.91h-7.19v-3h7.19a1.24 1.24 0 1 0 0-2.48H358q-4.22 0-4.22-4.22T358 94h7.19v3H358a1.24 1.24 0 0 0 0 2.48h3.47q4.21 0 4.21 4.22t-4.22 4.21z" transform="translate(100.18 5.15)" fill="url(#linear-gradient-43)"/><path d="M379.06 97h-11.9v-3h11.9zm-4.46 10.91h-3V98h3z" transform="translate(100.18 5.15)" fill="url(#linear-gradient-44)"/><path d="M380.55 100q0-6 5.95-6c4 0 5.95 2 5.95 6v2c0 4-2 6-5.95 6s-5.95-2-5.95-6zm5.95-3a2.63 2.63 0 0 0-3 3v2a3 3 0 1 0 6 0v-2c-.03-2-1.02-3-3-3z" transform="translate(100.18 5.15)" fill="url(#linear-gradient-45)"/><path d="M400.88 103.94h-3v-3h3a2 2 0 0 0 0-4h-4v10.91h-3V94h6.95c3.3 0 5 1.65 5 5s-1.65 4.94-4.95 4.94z" transform="translate(100.18 5.15)" fill="url(#linear-gradient-46)"/><path d="M415.33 100v7.93h-3V100q0-6 5.95-6t5.95 6v7.93h-3V100c0-2-1-3-3-3a2.64 2.64 0 0 0-2.9 3zm5 5h-4v-3h4z" transform="translate(100.18 5.15)" fill="url(#linear-gradient-47)"/><path d="M431.7 94h5.95v3h-5.95a2.63 2.63 0 0 0-3 3v2a2.64 2.64 0 0 0 3 3h5.95v3h-5.95q-6 0-5.95-6v-2q0-6 5.95-6z" transform="translate(100.18 5.15)" fill="url(#linear-gradient-48)"/><path d="M451 97h-11.9v-3H451zm-4.47 10.91h-3V98h3z" transform="translate(100.18 5.15)" fill="url(#linear-gradient-49)"/><path d="M456 107.91h-3V94h3z" transform="translate(100.18 5.15)" fill="url(#linear-gradient-50)"/><path d="M458 100q0-6 5.95-6c4 0 5.95 2 5.95 6v2c0 4-2 6-5.95 6s-5.95-2-5.95-6zm5.95-3a2.63 2.63 0 0 0-3 3v2a3 3 0 1 0 5.95 0v-2c0-2-.99-3-2.97-3z" transform="translate(100.18 5.15)" fill="url(#linear-gradient-51)"/><path d="M483.26 100v7.93h-3V100a2.63 2.63 0 0 0-3-3c-2 0-3 1-3 3v7.93h-3V100c0-4 2-6 5.95-6s6.05 2 6.05 6z" transform="translate(100.18 5.15)" fill="url(#linear-gradient-52)"/><path d="M487.73 103.94h-3V94h3zm0 4h-3v-3h3z" transform="translate(100.18 5.15)" fill="url(#linear-gradient-53)"/></g><path d="M436.11 15.23L440.87 66l21.32 5.64L483.57 66l4.76-50.78zm43.39 47.55l-17.19 4.54h-.09L445 62.78l-4-43.4h42.6zm-9.25-18.33l-.76 8.07-7.28 1.88-7.28-1.87-.46-5h-6.56l.91 9.78 13.39 3.54 13.38-3.54 1.8-19.12h-23.82l-.57-6.35h25l.59-6.23h-32.76l1.76 18.84z" transform="translate(100.18 5.15)" fill="url(#linear-gradient-54)" id="html5-logo"/><g id="Java-logo"><path d="M320 57.09s-2.61 1.31 1.85 1.75a45.11 45.11 0 0 0 14.1-.52 26.15 26.15 0 0 0 3.75 1.58c-13.33 4.92-30.18-.29-19.7-2.81m-1.63-6.42s-2.92 1.86 1.54 2.26a64 64 0 0 0 18.19-.75 8.32 8.32 0 0 0 2.81 1.47c-16.12 4.06-34.08.32-22.54-3" transform="translate(100.18 5.15)" fill="url(#linear-gradient-55)"/><path d="M332.08 39.78c3.29 3.26-.86 6.19-.86 6.19s8.34-3.71 4.51-8.35c-3.58-4.33-6.32-6.48 8.53-13.9 0 0-23.31 5-12.18 16.06" transform="translate(100.18 5.15)" fill="url(#linear-gradient-56)"/><path d="M349.72 61.84s1.92 1.37-2.12 2.43c-7.7 2-32 2.61-38.8.08-2.43-.91 2.13-2.18 3.56-2.44a10.79 10.79 0 0 1 2.35-.23c-2.7-1.64-17.47 3.22-7.5 4.61 27.19 3.8 49.56-1.71 42.51-4.45M321.23 44s-12.38 2.53-4.38 3.45a108 108 0 0 0 16.37-.15c5.12-.37 10.27-1.16 10.27-1.16a22.73 22.73 0 0 0-3.12 1.43c-12.57 2.85-36.85 1.52-29.86-1.39A26.69 26.69 0 0 1 321.23 44m22.2 10.69c12.78-5.72 6.88-11.21 2.75-10.47a11.69 11.69 0 0 0-1.46.33 2.33 2.33 0 0 1 1.09-.72c8.16-2.47 14.43 7.28-2.63 11.15a1 1 0 0 0 .25-.29" transform="translate(100.18 5.15)" fill="url(#linear-gradient-57)"/><path d="M335.73 11.74s7.08 6.1-6.71 15.47C318 34.73 326.5 39 329 43.91c-6.45-5-11.19-9.42-8-13.53 4.66-6 17.59-9 14.73-18.64" transform="translate(100.18 5.15)" fill="url(#linear-gradient-58)"/><path d="M322.48 70.2c12.27.68 31.11-.38 31.55-5.37 0 0-.86 1.89-10.14 3.4a117.43 117.43 0 0 1-31 .41s1.56 1.11 9.62 1.56" transform="translate(100.18 5.15)" fill="url(#linear-gradient-59)"/></g><path d="M395.94 72.31a7.11 7.11 0 0 1-3.63-1c-1.47-.87-6.52-3.77-11.06-6.38l-7-4a6.61 6.61 0 0 1-2.53-2.53 6.78 6.78 0 0 1-.81-3.33V33.84a6.51 6.51 0 0 1 3.31-5.84 2331.23 2331.23 0 0 0 18.09-10.4 6.76 6.76 0 0 1 7.14-.06L417.65 28a6.59 6.59 0 0 1 2.49 2.45 6.8 6.8 0 0 1 .86 3.41V55a6.77 6.77 0 0 1-.82 3.34 6.52 6.52 0 0 1-2.53 2.52l-18.2 10.5a7 7 0 0 1-3.51.95zm0-51.25a2.54 2.54 0 0 0-1.31.42 2588.06 2588.06 0 0 1-18.14 10.43 1.94 1.94 0 0 0-1.07 1.91V55a2.24 2.24 0 0 0 .25 1.12 2 2 0 0 0 .82.79l7 4c4.55 2.62 9.63 5.54 11.1 6.41a2.23 2.23 0 0 0 2.54 0l18.2-10.5a2.07 2.07 0 0 0 .82-.78 2.37 2.37 0 0 0 .24-1.13V33.85a2.2 2.2 0 0 0-.26-1.15 2.07 2.07 0 0 0-.81-.76l-18.19-10.5a2.5 2.5 0 0 0-1.19-.38z" transform="translate(100.18 5.15)" fill="url(#linear-gradient-60)"/><path d="M400.65 41.2h7.09a11.17 11.17 0 0 0-11.57-10.19c-5.46 0-12.8 3.47-12.8 13.45s7.2 13.24 12.8 13.24c9.08 0 11.25-6.28 11.25-9.83l-6.76-.39s.18 4.11-4.52 4.11c-4.34 0-5.07-5.32-5.07-7.13 0-2.74 1-7.16 5.07-7.16a4.4 4.4 0 0 1 4.51 3.85" transform="translate(100.18 5.15)" fill="url(#linear-gradient-61)"/></svg>